<?xml version="1.0" encoding="UTF-8" standalone="no"?>
<!-- Created with Inkscape (http://www.inkscape.org/) -->

<svg
   version="1.1"
   id="svg1"
   width="477.20389"
   height="477.20389"
   viewBox="0 0 477.20389 477.20389"
   sodipodi:docname="solNegro.svg"
   inkscape:version="1.4.2 (f4327f4, 2025-05-13)"
   xmlns:inkscape="http://www.inkscape.org/namespaces/inkscape"
   xmlns:sodipodi="http://sodipodi.sourceforge.net/DTD/sodipodi-0.dtd"
   xmlns="http://www.w3.org/2000/svg"
   xmlns:svg="http://www.w3.org/2000/svg">
  <defs
     id="defs1" />
  <sodipodi:namedview
     id="namedview1"
     pagecolor="#505050"
     bordercolor="#ffffff"
     borderopacity="1"
     inkscape:showpageshadow="0"
     inkscape:pageopacity="0"
     inkscape:pagecheckerboard="1"
     inkscape:deskcolor="#505050"
     inkscape:zoom="1.7078654"
     inkscape:cx="238.60194"
     inkscape:cy="238.60194"
     inkscape:window-width="1920"
     inkscape:window-height="1017"
     inkscape:window-x="-8"
     inkscape:window-y="-8"
     inkscape:window-maximized="1"
     inkscape:current-layer="g1" />
  <g
     inkscape:groupmode="layer"
     inkscape:label="Image"
     id="g1">
    <path
       style="fill:#000000"
       d="m 289.66158,426.14127 c -29.07448,-23.38213 -52.66873,-42.70693 -52.43165,-42.94401 0.23707,-0.23707 5.22931,-0.98166 11.09385,-1.65463 5.86454,-0.67297 14.98888,-2.11307 20.27631,-3.20021 5.28743,-1.08715 13.54109,-3.44007 18.34147,-5.22872 4.80038,-1.78864 11.84765,-5.09648 15.6606,-7.35076 3.81294,-2.25427 10.99992,-7.22579 15.97106,-11.04781 4.97114,-3.82203 12.03868,-9.69833 15.70565,-13.05844 3.69977,-3.39017 8.92042,-9.53466 11.72968,-13.80533 2.78435,-4.23281 6.99252,-11.05136 9.3515,-15.15233 2.35898,-4.10097 5.79374,-10.97752 7.63282,-15.28122 1.83907,-4.3037 4.20466,-11.01438 5.25688,-14.91262 1.22921,-4.554 2.16389,-11.91888 2.61463,-20.60227 0.38583,-7.43301 0.34559,-18.54758 -0.0894,-24.69903 -0.64081,-9.06143 -1.42871,-13.04214 -4.15078,-20.97088 -1.8479,-5.38252 -4.59464,-12.93204 -6.10386,-16.7767 -1.50921,-3.84466 -4.64707,-10.52816 -6.97301,-14.85223 -2.32595,-4.32407 -5.94408,-10.19591 -8.0403,-13.04854 -2.09622,-2.85264 -6.14139,-7.64161 -8.98926,-10.64216 -2.84787,-3.00056 -8.53328,-8.27414 -12.63425,-11.71906 -4.10097,-3.44492 -11.13279,-8.90769 -15.62627,-12.13947 -6.91447,-4.97301 -10.06269,-6.50618 -20.48678,-9.977 -6.77426,-2.25557 -16.51914,-4.98809 -21.65529,-6.07227 -6.84117,-1.44409 -12.8279,-1.98485 -22.387,-2.02215 -7.1767,-0.028 -16.8233,0.47456 -21.4369,1.1168 -4.61359,0.64225 -14.16637,2.24257 -21.22839,3.55627 -12.42582,2.3115 -13.2076,2.59838 -24.23301,8.89263 -6.26613,3.57724 -14.32889,8.70873 -17.91724,11.40331 -3.58835,2.69459 -8.6726,6.83906 -11.29835,9.20995 -2.62574,2.37089 -7.37657,7.75745 -10.55739,11.97012 -3.18082,4.21268 -8.71429,12.62973 -12.29659,18.70454 -3.58231,6.07482 -8.35401,14.90537 -10.60378,19.62346 -3.30502,6.9311 -4.40883,10.6365 -5.74836,19.29677 -1.19806,7.74571 -1.64943,16.01768 -1.62745,29.82525 0.0265,16.62241 0.29015,20.03834 2.02796,26.27113 1.09865,3.94039 3.12311,10.02194 4.4988,13.51457 1.37569,3.49262 4.9096,11.19946 7.85314,17.12631 2.94354,5.92685 6.46078,12.53268 7.81608,14.67961 1.3553,2.14694 2.14754,3.90352 1.76054,3.90352 -0.387,0 -29.43692,-8.02573 -64.555379,-17.83497 C 31.063382,300.43347 1.9982764,292.11175 1.5927177,291.74998 1.1871591,291.38822 25.423076,272.94747 55.45031,250.77054 96.883154,220.16987 109.92577,210.07875 109.54956,208.91374 109.27691,208.06944 97.117919,180.97162 82.529571,148.69638 67.941223,116.42114 56.157146,89.862272 56.342734,89.676685 c 0.185588,-0.185588 29.59148,7.890462 65.346426,17.946775 35.75495,10.05632 65.34148,17.9511 65.74784,17.54397 0.40636,-0.40714 13.30317,-26.658565 28.65958,-58.336512 15.3564,-31.677947 28.27509,-57.5876637 28.7082,-57.5771479 0.4331,0.010516 13.30769,27.4449649 28.6102,60.9654419 l 27.82274,60.946328 10.39085,-2.61962 c 5.71497,-1.44079 34.4412,-8.54541 63.83606,-15.78804 29.39487,-7.24264 53.6217,-12.991946 53.8374,-12.776245 0.2157,0.215705 -13.05745,27.785825 -29.49588,61.266955 -24.17113,49.23077 -29.65552,61.08838 -28.67235,61.99153 0.66865,0.61421 24.63936,19.30208 53.26826,41.52859 41.72404,32.39312 51.71078,40.55387 50.3301,41.12766 -0.94734,0.39371 -31.03352,7.00033 -66.85817,14.68138 -35.82464,7.68104 -65.22999,14.08359 -65.34521,14.22787 -0.11522,0.14429 0.12368,22.70118 0.53089,50.12642 0.40721,27.42525 0.7679,57.51845 0.80152,66.87379 0.0336,9.35534 -0.25342,16.97341 -0.63789,16.92905 -0.38446,-0.0444 -24.48724,-19.21149 -53.56172,-42.59361 z M 133.88007,444.797 c -0.32182,-12.16456 -0.8037,-37.0067 -1.07083,-55.20476 -0.26714,-18.19806 -0.73366,-39.35943 -1.03672,-47.02527 l -0.55102,-13.93788 8.48417,7.87963 c 4.66629,4.3338 12.99388,11.37101 18.50575,15.63826 5.92116,4.58411 13.83512,9.6289 19.34198,12.32964 5.12621,2.51406 14.56311,6.27353 20.97087,8.35438 6.40777,2.08085 17.20559,5.13056 23.99516,6.77715 6.78956,1.64659 12.24199,3.2679 12.1165,3.60292 -0.12549,0.33501 -20.77962,17.69799 -45.89806,38.58439 -25.11845,20.8864 -47.60553,39.5826 -49.97129,41.5471 l -4.30138,3.57182 z m 86.94019,-91.13653 c -3.88479,-0.70348 -10.59547,-2.3928 -14.91263,-3.75403 -4.31715,-1.36123 -10.36588,-3.72994 -13.44161,-5.2638 -3.07573,-1.53386 -8.94757,-5.01199 -13.04854,-7.72917 -4.10097,-2.71718 -10.40382,-7.80904 -14.00632,-11.31525 -3.60251,-3.5062 -8.71932,-9.24072 -11.3707,-12.74338 -2.65138,-3.50265 -6.88547,-10.42304 -9.4091,-15.37864 -2.52363,-4.9556 -5.46727,-11.73639 -6.54143,-15.06843 -1.07416,-3.33204 -2.40314,-8.1201 -2.95329,-10.64013 -0.55015,-2.52003 -1.38116,-8.60158 -1.84669,-13.51456 -0.53047,-5.59843 -0.50188,-12.58561 0.0766,-18.7191 0.50766,-5.38252 1.55941,-12.30291 2.33722,-15.37864 0.77782,-3.07573 2.19422,-7.68932 3.14756,-10.25243 0.95334,-2.5631 2.82988,-7.11437 4.17008,-10.11393 1.34021,-2.99956 4.69799,-8.88742 7.46174,-13.08413 2.76375,-4.19671 8.0978,-10.79456 11.85344,-14.6619 3.75565,-3.86733 9.67984,-9.16693 13.16488,-11.77688 3.48503,-2.60995 9.986,-6.61592 14.4466,-8.90214 4.4606,-2.28623 11.29204,-5.24231 15.18099,-6.56906 3.88895,-1.32676 11.01904,-3.10066 15.84466,-3.94201 6.59031,-1.14903 12.02122,-1.40425 21.82239,-1.02552 8.63526,0.33368 15.71579,1.16855 20.93465,2.46842 4.33736,1.08032 11.8518,3.65854 16.69875,5.72939 4.84696,2.07085 12.25998,6.03542 16.4734,8.81017 4.21341,2.77475 10.77071,7.94936 14.57178,11.49914 3.80106,3.54978 9.56953,10.16069 12.81882,14.69091 3.24928,4.53022 7.71083,12.01153 9.91455,16.62512 2.20371,4.61359 5.06187,12.03835 6.35146,16.49946 1.28959,4.46112 2.84775,13.26888 3.46258,19.57282 0.94565,9.69596 0.89188,13.18472 -0.34904,22.64616 -0.85674,6.53228 -2.70499,14.86745 -4.44343,20.03884 -1.63709,4.8699 -4.03141,10.95146 -5.3207,13.51456 -1.28929,2.56311 -4.1152,7.40833 -6.27979,10.76716 -2.1646,3.35883 -6.44416,9.02097 -9.51014,12.58253 -3.06598,3.56155 -9.02063,9.20177 -13.23255,12.53381 -4.21193,3.33204 -10.88784,7.83688 -14.83536,10.01076 -3.94752,2.17388 -9.90352,4.97234 -13.23556,6.21881 -3.33204,1.24646 -8.36505,2.89393 -11.18447,3.66104 -2.81942,0.76711 -8.14248,1.84826 -11.82902,2.40255 -3.68654,0.5543 -11.02635,0.97017 -16.31068,0.92417 -5.28433,-0.046 -12.78633,-0.65921 -16.67111,-1.36269 z"
       id="path1" />
  </g>
</svg>
